<?xml version="1.0" encoding="utf-8"?>
<!-- Generator: Adobe Illustrator 16.0.0, SVG Export Plug-In . SVG Version: 6.00 Build 0)  -->
<!DOCTYPE svg PUBLIC "-//W3C//DTD SVG 1.1//EN" "http://www.w3.org/Graphics/SVG/1.1/DTD/svg11.dtd">
<svg version="1.1" id="Layer_2" xmlns="http://www.w3.org/2000/svg" xmlns:xlink="http://www.w3.org/1999/xlink" x="0px" y="0px"
	 width="720px" height="720px" viewBox="0 0 720 720" enable-background="new 0 0 720 720" xml:space="preserve">
<rect x="95.55" y="97.875" display="none" fill="#2A3744" width="530.177" height="524.852"/>
<g id="Layer_1">
	<g>
		<g>
			<g>
				<polyline fill="#DEDDDD" points="131.309,88.401 255.842,168.551 380.358,261.024 476.606,359.672 555.838,458.325 
					612.442,532.298 				"/>
				<path fill="#DEDDDD" d="M315.445,117.604 M315.445,117.604l-84.948,51.396l-62.3,82.245l-33.994,87.367L94.562,410.57
					l-11.325,66.826l-11.323,66.814v46.26v41.128L315.445,117.604z"/>
				<polyline fill="#DEDDDD" points="12.518,608.228 223.104,492.998 475.82,443.616 707.482,427.161 				"/>
				<path fill="#DEDDDD" d="M253.021,398.585c14.82,19.482,14.82,51.106,0,70.605c-14.822,19.488-38.84,19.488-53.652,0
					c-14.83-19.499-14.83-51.123,0-70.605C214.181,379.078,238.198,379.078,253.021,398.585"/>
				<path fill="#DEDDDD" d="M308.947,294.733c14.812,19.503,14.812,51.104,0,70.598c-14.822,19.499-38.852,19.499-53.672,0
					c-14.811-19.493-14.811-51.095,0-70.598C270.096,275.242,294.125,275.242,308.947,294.733"/>
				<path fill="#DEDDDD" d="M388.822,362.636c14.822,19.499,14.822,51.105,0,70.604c-14.82,19.499-38.845,19.499-53.659,0
					c-14.807-19.498-14.807-51.104,0-70.604C349.978,343.141,374.002,343.141,388.822,362.636"/>
			</g>
		</g>
		<g>
			<g>
				<path fill="#DEDDDD" d="M662.972,424.331V411.85h-4.661v-1.672h11.188v1.672h-4.661v12.481H662.972z"/>
				<path fill="#DEDDDD" d="M671.388,424.331v-14.153h2.812l3.354,10.015c0.307,0.932,0.528,1.629,0.673,2.097
					c0.163-0.515,0.417-1.272,0.756-2.272l3.4-9.839h2.509v14.153h-1.796v-11.853l-4.13,11.853h-1.687l-4.09-12.053v12.053H671.388z
					"/>
			</g>
		</g>
	</g>
</g>
<g>
</g>
<g>
</g>
<g>
</g>
<g>
</g>
<g>
</g>
<g>
</g>
</svg>
